{"accessors" : [{"bufferView" : 0, "byteOffset" : 0, "componentType" : 5123, "count" : 40692, "type" : "SCALAR", "max" : [7177], "min" : [0]}, {"bufferView" : 1, "byteOffset" : 0, "componentType" : 5126, "count" : 7178, "type" : "VEC3", "max" : [19.97133445739746, 143.3700714111328, 18.121488571166992], "min" : [-19.930906295776367, 92.41632843017578, -9.057673454284668], "name" : "POSITION"}, {"bufferView" : 1, "byteOffset" : 12, "componentType" : 5126, "count" : 7178, "type" : "VEC3", "max" : [0.9989662170410156, 0.9999274015426636, 0.9999972581863403], "min" : [-0.9997780323028564, -0.9997950792312622, -0.999942421913147], "name" : "NORMAL"}, {"bufferView" : 1, "byteOffset" : 24, "componentType" : 5126, "count" : 7178, "type" : "VEC2", "max" : [0.8387077450752258, 0.6905434131622314], "min" : [0.6259230375289917, 0.05778712034225464], "name" : "TEXCOORD_0"}, {"bufferView" : 0, "byteOffset" : 81384, "componentType" : 5123, "count" : 4452, "type" : "SCALAR", "max" : [858], "min" : [0]}, {"bufferView" : 2, "byteOffset" : 0, "componentType" : 5126, "count" : 859, "type" : "VEC3", "max" : [32.04765319824219, 136.32017517089844, 10.079249382019043], "min" : [-31.576231002807617, 110.77215576171875, -5.979503631591797], "name" : "POSITION"}, {"bufferView" : 2, "byteOffset" : 12, "componentType" : 5126, "count" : 859, "type" : "VEC3", "max" : [0.9633545875549316, 0.6644760966300964, 0.9993509650230408], "min" : [-0.9992156028747559, -0.995878279209137, -0.9998689889907837], "name" : "NORMAL"}, {"bufferView" : 2, "byteOffset" : 24, "componentType" : 5126, "count" : 859, "type" : "VEC2", "max" : [0.39004918932914734, 0.7042847871780396], "min" : [0.05848495662212372, 0.4780123233795166], "name" : "TEXCOORD_0"}, {"bufferView" : 0, "byteOffset" : 90288, "componentType" : 5123, "count" : 16134, "type" : "SCALAR", "max" : [2922], "min" : [0]}, {"bufferView" : 3, "byteOffset" : 0, "componentType" : 5126, "count" : 2923, "type" : "VEC3", "max" : [17.666481018066406, 101.28658294677734, 14.51067066192627], "min" : [-17.652708053588867, 6.450107574462891, -9.252188682556152], "name" : "POSITION"}, {"bufferView" : 3, "byteOffset" : 12, "componentType" : 5126, "count" : 2923, "type" : "VEC3", "max" : [0.9998464584350586, 0.514404296875, 0.9997971653938293], "min" : [-0.9999904632568359, -0.993549108505249, -0.9999925494194031], "name" : "NORMAL"}, {"bufferView" : 3, "byteOffset" : 24, "componentType" : 5126, "count" : 2923, "type" : "VEC2", "max" : [0.4799153506755829, 0.44766008853912354], "min" : [0.04417264088988304, 0.01174706220626831], "name" : "TEXCOORD_0"}, {"bufferView" : 0, "byteOffset" : 122556, "componentType" : 5123, "count" : 27045, "type" : "SCALAR", "max" : [4690], "min" : [0]}, {"bufferView" : 4, "byteOffset" : 0, "componentType" : 5126, "count" : 4691, "type" : "VEC3", "max" : [7.720670223236084, 165.60499572753906, 13.2785005569458], "min" : [-7.720970153808594, 140.18157958984375, -5.255290508270264], "name" : "POSITION"}, {"bufferView" : 4, "byteOffset" : 12, "componentType" : 5126, "count" : 4691, "type" : "VEC3", "max" : [0.999908983707428, 0.999739944934845, 0.9998926520347595], "min" : [-0.9999933838844299, -0.9997333884239197, -0.999833345413208], "name" : "NORMAL"}, {"bufferView" : 4, "byteOffset" : 24, "componentType" : 5126, "count" : 4691, "type" : "VEC2", "max" : [0.9956099987030029, 0.9599800109863281], "min" : [0.0033400000538676977, 0.008939981460571289], "name" : "TEXCOORD_0"}, {"bufferView" : 0, "byteOffset" : 176648, "componentType" : 5123, "count" : 5520, "type" : "SCALAR", "max" : [963], "min" : [0]}, {"bufferView" : 5, "byteOffset" : 0, "componentType" : 5126, "count" : 964, "type" : "VEC3", "max" : [4.0295610427856445, 158.1227264404297, 10.310464859008789], "min" : [-4.021914958953857, 155.75318908691406, 7.793590068817139], "name" : "POSITION"}, {"bufferView" : 5, "byteOffset" : 12, "componentType" : 5126, "count" : 964, "type" : "VEC3", "max" : [1.0000044107437134, 1.0000044107437134, 0.9999924302101135], "min" : [-1.0000044107437134, -1.0000044107437134, -1.0000044107437134], "name" : "NORMAL"}, {"bufferView" : 5, "byteOffset" : 24, "componentType" : 5126, "count" : 964, "type" : "VEC2", "max" : [0.9912739992141724, 0.9895060062408447], "min" : [0.00916100014001131, 0.007386982440948486], "name" : "TEXCOORD_0"}, {"bufferView" : 0, "byteOffset" : 187688, "componentType" : 5123, "count" : 912, "type" : "SCALAR", "max" : [209], "min" : [0]}, {"bufferView" : 6, "byteOffset" : 0, "componentType" : 5126, "count" : 210, "type" : "VEC3", "max" : [4.61769437789917, 157.59397888183594, 10.8400297164917], "min" : [-4.61769437789917, 156.1983184814453, 9.46456241607666], "name" : "POSITION"}, {"bufferView" : 6, "byteOffset" : 12, "componentType" : 5126, "count" : 210, "type" : "VEC3", "max" : [0.9371498227119446, 0.9917316436767578, 0.9940738081932068], "min" : [-0.93714839220047, -0.9973176121711731, -0.2644193172454834], "name" : "NORMAL"}, {"bufferView" : 6, "byteOffset" : 24, "componentType" : 5126, "count" : 210, "type" : "VEC2", "max" : [0.9971479773521423, 0.7999160289764404], "min" : [0.0038139999378472567, 0.03266501426696777], "name" : "TEXCOORD_0"}, {"bufferView" : 0, "byteOffset" : 189512, "componentType" : 5123, "count" : 6327, "type" : "SCALAR", "max" : [1125], "min" : [0]}, {"bufferView" : 7, "byteOffset" : 0, "componentType" : 5126, "count" : 1126, "type" : "VEC3", "max" : [2.43674898147583, 153.558837890625, 11.671649932861328], "min" : [-2.438375949859619, 148.74940490722656, 4.950654983520508], "name" : "POSITION"}, {"bufferView" : 7, "byteOffset" : 12, "componentType" : 5126, "count" : 1126, "type" : "VEC3", "max" : [0.9996132850646973, 0.9998870491981506, 0.9889464378356934], "min" : [-0.9994535446166992, -0.9998343586921692, -0.8846521973609924], "name" : "NORMAL"}, {"bufferView" : 7, "byteOffset" : 24, "componentType" : 5126, "count" : 1126, "type" : "VEC2", "max" : [0.5378963947296143, 0.9980499744415283], "min" : [0.003269999986514449, 0.029042363166809082], "name" : "TEXCOORD_0"}, {"bufferView" : 0, "byteOffset" : 202168, "componentType" : 5123, "count" : 28392, "type" : "SCALAR", "max" : [5283], "min" : [0]}, {"bufferView" : 8, "byteOffset" : 0, "componentType" : 5126, "count" : 5284, "type" : "VEC3", "max" : [2.3983540534973145, 152.12652587890625, 11.609336853027344], "min" : [-2.4006059169769287, 149.96865844726562, 7.050795078277588], "name" : "POSITION"}, {"bufferView" : 8, "byteOffset" : 12, "componentType" : 5126, "count" : 5284, "type" : "VEC3", "max" : [0.9999053478240967, 0.9999217391014099, 0.9997490048408508], "min" : [-0.9999696612358093, -0.9999602437019348, -0.9990934133529663], "name" : "NORMAL"}, {"bufferView" : 8, "byteOffset" : 24, "componentType" : 5126, "count" : 5284, "type" : "VEC2", "max" : [0.994791567325592, 0.9910910725593567], "min" : [0.48568034172058105, 0.4079066514968872], "name" : "TEXCOORD_0"}, {"bufferView" : 0, "byteOffset" : 258952, "componentType" : 5123, "count" : 1806, "type" : "SCALAR", "max" : [339], "min" : [0]}, {"bufferView" : 9, "byteOffset" : 0, "componentType" : 5126, "count" : 340, "type" : "VEC3", "max" : [1.6900783777236938, 151.5055694580078, 10.806824684143066], "min" : [-1.6857788562774658, 148.49534606933594, 3.877089738845825], "name" : "POSITION"}, {"bufferView" : 9, "byteOffset" : 12, "componentType" : 5126, "count" : 340, "type" : "VEC3", "max" : [0.997142493724823, 0.9992631077766418, 0.9962767362594604], "min" : [-0.9994165301322937, -0.9998889565467834, -0.9928292036056519], "name" : "NORMAL"}, {"bufferView" : 9, "byteOffset" : 24, "componentType" : 5126, "count" : 340, "type" : "VEC2", "max" : [0.9892150163650513, 0.487047016620636], "min" : [0.2403479963541031, 0.03520798683166504], "name" : "TEXCOORD_0"}, {"bufferView" : 0, "byteOffset" : 262564, "componentType" : 5123, "count" : 49056, "type" : "SCALAR", "max" : [8831], "min" : [0]}, {"bufferView" : 10, "byteOffset" : 0, "componentType" : 5126, "count" : 8832, "type" : "VEC3", "max" : [53.12782669067383, 93.10628509521484, 16.074939727783203], "min" : [-53.127742767333984, 0.9992019534111023, 6.21992301940918], "name" : "POSITION"}, {"bufferView" : 10, "byteOffset" : 12, "componentType" : 5126, "count" : 8832, "type" : "VEC3", "max" : [0.9997192025184631, 0.9999852776527405, 0.9988230466842651], "min" : [-0.9997186660766602, -0.9999935030937195, -0.9998855590820312], "name" : "NORMAL"}, {"bufferView" : 10, "byteOffset" : 24, "componentType" : 5126, "count" : 8832, "type" : "VEC2", "max" : [-0.005940079689025879, 0.9938098192214966], "min" : [-0.9929783344268799, 0.02570474147796631], "name" : "TEXCOORD_0"}, {"bufferView" : 0, "byteOffset" : 360676, "componentType" : 5123, "count" : 72294, "type" : "SCALAR", "max" : [13160], "min" : [0]}, {"bufferView" : 11, "byteOffset" : 0, "componentType" : 5126, "count" : 13161, "type" : "VEC3", "max" : [53.06850051879883, 142.1909942626953, 16.660499572753906], "min" : [-53.06850051879883, -0.314410001039505, -8.878379821777344], "name" : "POSITION"}, {"bufferView" : 11, "byteOffset" : 12, "componentType" : 5126, "count" : 13161, "type" : "VEC3", "max" : [0.9999843239784241, 0.9998961687088013, 0.9998766183853149], "min" : [-0.9999843239784241, -0.9997749924659729, -1.0000026226043701], "name" : "NORMAL"}, {"bufferView" : 11, "byteOffset" : 24, "componentType" : 5126, "count" : 13161, "type" : "VEC2", "max" : [0.9955300092697144, 0.9800300002098083], "min" : [0.004693134222179651, 0.007990002632141113], "name" : "TEXCOORD_0"}], "asset" : {"generator" : "Aspose.3D 24.9.1", "version" : "2.0"}, "buffers" : [{"uri" : "data:application/octet-stream;base64,", "byteLength" : 1963488}], "bufferViews" : [{"buffer" : 0, "byteOffset" : 0, "byteLength" : 505264, "target" : 34963}, {"buffer" : 0, "byteOffset" : 505268, "byteLength" : 229696, "byteStride" : 32, "target" : 34962}, {"buffer" : 0, "byteOffset" : 734968, "byteLength" : 27488, "byteStride" : 32, "target" : 34962}, {"buffer" : 0, "byteOffset" : 762460, "byteLength" : 93536, "byteStride" : 32, "target" : 34962}, {"buffer" : 0, "byteOffset" : 856000, "byteLength" : 150112, "byteStride" : 32, "target" : 34962}, {"buffer" : 0, "byteOffset" : 1006116, "byteLength" : 30848, "byteStride" : 32, "target" : 34962}, {"buffer" : 0, "byteOffset" : 1036968, "byteLength" : 6720, "byteStride" : 32, "target" : 34962}, {"buffer" : 0, "byteOffset" : 1043692, "byteLength" : 36032, "byteStride" : 32, "target" : 34962}, {"buffer" : 0, "byteOffset" : 1079728, "byteLength" : 169088, "byteStride" : 32, "target" : 34962}, {"buffer" : 0, "byteOffset" : 1248820, "byteLength" : 10880, "byteStride" : 32, "target" : 34962}, {"buffer" : 0, "byteOffset" : 1259704, "byteLength" : 282624, "byteStride" : 32, "target" : 34962}, {"buffer" : 0, "byteOffset" : 1542332, "byteLength" : 421152, "byteStride" : 32, "target" : 34962}], "images" : [{"uri" : "pink tshirt _F_normal.png"}, {"uri" : "pink tshirt _F_diffuse.png"}, {"uri" : "pink tshirt _F_normal.png"}, {"uri" : "pink tshirt _F_diffuse.png"}, {"uri" : "pink tshirt _F_normal.png"}, {"uri" : "pink tshirt _F_diffuse.png"}, {"uri" : "pink tshirt _F_normal.png"}, {"uri" : "pink tshirt _F_diffuse.png"}, {"uri" : "pink tshirt _F_normal.png"}, {"uri" : "pink tshirt _F_diffuse.png"}, {"uri" : "pink tshirt _F_normal.png"}, {"uri" : "pink tshirt _F_diffuse.png"}, {"uri" : "pink tshirt _F_normal.png"}, {"uri" : "pink tshirt _F_diffuse.png"}, {"uri" : "pink tshirt _F_normal.png"}, {"uri" : "pink tshirt _F_diffuse.png"}, {"uri" : "pink tshirt _F_normal.png"}, {"uri" : "pink tshirt _F_diffuse.png"}, {"uri" : "pink tshirt _F_normal.png"}, {"uri" : "pink tshirt _F_diffuse.png"}, {"uri" : "pink tshirt _F_normal.png"}, {"uri" : "pink tshirt _F_diffuse.png"}], "materials" : [{"name" : "tshirt_FRONT_296378", "pbrMetallicRoughness" : {"baseColorFactor" : [1, 1, 1, 1], "baseColorTexture" : {"index" : 1, "texCoord" : 0}, "metallicFactor" : 1, "roughnessFactor" : 1}, "normalTexture" : {"index" : 0, "texCoord" : 0, "scale" : 1}, "emissiveFactor" : [0, 0, 0], "alphaMode" : "OPAQUE", "doubleSided" : false}, {"name" : "sleeves_FRONT_296373", "pbrMetallicRoughness" : {"baseColorFactor" : [1, 1, 1, 1], "baseColorTexture" : {"index" : 3, "texCoord" : 0}, "metallicFactor" : 1, "roughnessFactor" : 1}, "normalTexture" : {"index" : 2, "texCoord" : 0, "scale" : 1}, "emissiveFactor" : [0, 0, 0], "alphaMode" : "OPAQUE", "doubleSided" : false}, {"name" : "pants_FRONT_304937", "pbrMetallicRoughness" : {"baseColorFactor" : [1, 1, 1, 1], "baseColorTexture" : {"index" : 5, "texCoord" : 0}, "metallicFactor" : 1, "roughnessFactor" : 1}, "normalTexture" : {"index" : 4, "texCoord" : 0, "scale" : 1}, "emissiveFactor" : [0, 0, 0], "alphaMode" : "OPAQUE", "doubleSided" : false}, {"name" : "Material180300", "pbrMetallicRoughness" : {"baseColorFactor" : [1, 1, 1, 1], "baseColorTexture" : {"index" : 7, "texCoord" : 0}, "metallicFactor" : 1, "roughnessFactor" : 1}, "normalTexture" : {"index" : 6, "texCoord" : 0, "scale" : 1}, "emissiveFactor" : [0, 0, 0], "alphaMode" : "OPAQUE", "doubleSided" : false}, {"name" : "Material180306", "pbrMetallicRoughness" : {"baseColorFactor" : [1, 1, 1, 1], "baseColorTexture" : {"index" : 9, "texCoord" : 0}, "metallicFactor" : 1, "roughnessFactor" : 1}, "normalTexture" : {"index" : 8, "texCoord" : 0, "scale" : 1}, "emissiveFactor" : [0, 0, 0], "alphaMode" : "OPAQUE", "doubleSided" : false}, {"name" : "Material180313", "pbrMetallicRoughness" : {"baseColorFactor" : [1, 1, 1, 1], "baseColorTexture" : {"index" : 11, "texCoord" : 0}, "metallicFactor" : 1, "roughnessFactor" : 1}, "normalTexture" : {"index" : 10, "texCoord" : 0, "scale" : 1}, "emissiveFactor" : [0, 0, 0], "alphaMode" : "OPAQUE", "doubleSided" : false}, {"name" : "Material180319", "pbrMetallicRoughness" : {"baseColorFactor" : [1, 1, 1, 1], "baseColorTexture" : {"index" : 13, "texCoord" : 0}, "metallicFactor" : 1, "roughnessFactor" : 1}, "normalTexture" : {"index" : 12, "texCoord" : 0, "scale" : 1}, "emissiveFactor" : [0, 0, 0], "alphaMode" : "OPAQUE", "doubleSided" : false}, {"name" : "Material180323", "pbrMetallicRoughness" : {"baseColorFactor" : [1, 1, 1, 1], "baseColorTexture" : {"index" : 15, "texCoord" : 0}, "metallicFactor" : 1, "roughnessFactor" : 1}, "normalTexture" : {"index" : 14, "texCoord" : 0, "scale" : 1}, "emissiveFactor" : [0, 0, 0], "alphaMode" : "OPAQUE", "doubleSided" : false}, {"name" : "Material180327", "pbrMetallicRoughness" : {"baseColorFactor" : [1, 1, 1, 1], "baseColorTexture" : {"index" : 17, "texCoord" : 0}, "metallicFactor" : 1, "roughnessFactor" : 1}, "normalTexture" : {"index" : 16, "texCoord" : 0, "scale" : 1}, "emissiveFactor" : [0, 0, 0], "alphaMode" : "OPAQUE", "doubleSided" : false}, {"name" : "Material180332", "pbrMetallicRoughness" : {"baseColorFactor" : [1, 1, 1, 1], "baseColorTexture" : {"index" : 19, "texCoord" : 0}, "metallicFactor" : 1, "roughnessFactor" : 1}, "normalTexture" : {"index" : 18, "texCoord" : 0, "scale" : 1}, "emissiveFactor" : [0, 0, 0], "alphaMode" : "OPAQUE", "doubleSided" : false}, {"name" : "Material180338", "pbrMetallicRoughness" : {"baseColorFactor" : [1, 1, 1, 1], "baseColorTexture" : {"index" : 21, "texCoord" : 0}, "metallicFactor" : 1, "roughnessFactor" : 1}, "normalTexture" : {"index" : 20, "texCoord" : 0, "scale" : 1}, "emissiveFactor" : [0, 0, 0], "alphaMode" : "OPAQUE", "doubleSided" : false}], "meshes" : [{"primitives" : [{"attributes" : {"POSITION" : 1, "NORMAL" : 2, "TEXCOORD_0" : 3}, "indices" : 0, "material" : 0, "mode" : 4}, {"attributes" : {"POSITION" : 5, "NORMAL" : 6, "TEXCOORD_0" : 7}, "indices" : 4, "material" : 1, "mode" : 4}, {"attributes" : {"POSITION" : 9, "NORMAL" : 10, "TEXCOORD_0" : 11}, "indices" : 8, "material" : 2, "mode" : 4}], "name" : "pink tshirt _F"}, {"primitives" : [{"attributes" : {"POSITION" : 13, "NORMAL" : 14, "TEXCOORD_0" : 15}, "indices" : 12, "material" : 3, "mode" : 4}, {"attributes" : {"POSITION" : 17, "NORMAL" : 18, "TEXCOORD_0" : 19}, "indices" : 16, "material" : 4, "mode" : 4}, {"attributes" : {"POSITION" : 21, "NORMAL" : 22, "TEXCOORD_0" : 23}, "indices" : 20, "material" : 5, "mode" : 4}, {"attributes" : {"POSITION" : 25, "NORMAL" : 26, "TEXCOORD_0" : 27}, "indices" : 24, "material" : 6, "mode" : 4}, {"attributes" : {"POSITION" : 29, "NORMAL" : 30, "TEXCOORD_0" : 31}, "indices" : 28, "material" : 7, "mode" : 4}, {"attributes" : {"POSITION" : 33, "NORMAL" : 34, "TEXCOORD_0" : 35}, "indices" : 32, "material" : 8, "mode" : 4}, {"attributes" : {"POSITION" : 37, "NORMAL" : 38, "TEXCOORD_0" : 39}, "indices" : 36, "material" : 9, "mode" : 4}, {"attributes" : {"POSITION" : 41, "NORMAL" : 42, "TEXCOORD_0" : 43}, "indices" : 40, "material" : 10, "mode" : 4}], "name" : "base_female"}], "nodes" : [{"mesh" : 0, "name" : "pink tshirt _F"}, {"mesh" : 1, "name" : "base_female"}], "samplers" : [{"magFilter" : 9729, "minFilter" : 9729, "wrapS" : 10497, "wrapT" : 10497}, {"magFilter" : 9729, "minFilter" : 9729, "wrapS" : 10497, "wrapT" : 10497}, {"magFilter" : 9729, "minFilter" : 9729, "wrapS" : 10497, "wrapT" : 10497}, {"magFilter" : 9729, "minFilter" : 9729, "wrapS" : 10497, "wrapT" : 10497}, {"magFilter" : 9729, "minFilter" : 9729, "wrapS" : 10497, "wrapT" : 10497}, {"magFilter" : 9729, "minFilter" : 9729, "wrapS" : 10497, "wrapT" : 10497}, {"magFilter" : 9729, "minFilter" : 9729, "wrapS" : 10497, "wrapT" : 10497}, {"magFilter" : 9729, "minFilter" : 9729, "wrapS" : 10497, "wrapT" : 10497}, {"magFilter" : 9729, "minFilter" : 9729, "wrapS" : 10497, "wrapT" : 10497}, {"magFilter" : 9729, "minFilter" : 9729, "wrapS" : 10497, "wrapT" : 10497}, {"magFilter" : 9729, "minFilter" : 9729, "wrapS" : 10497, "wrapT" : 10497}, {"magFilter" : 9729, "minFilter" : 9729, "wrapS" : 10497, "wrapT" : 10497}, {"magFilter" : 9729, "minFilter" : 9729, "wrapS" : 10497, "wrapT" : 10497}, {"magFilter" : 9729, "minFilter" : 9729, "wrapS" : 10497, "wrapT" : 10497}, {"magFilter" : 9729, "minFilter" : 9729, "wrapS" : 10497, "wrapT" : 10497}, {"magFilter" : 9729, "minFilter" : 9729, "wrapS" : 10497, "wrapT" : 10497}, {"magFilter" : 9729, "minFilter" : 9729, "wrapS" : 10497, "wrapT" : 10497}, {"magFilter" : 9729, "minFilter" : 9729, "wrapS" : 10497, "wrapT" : 10497}, {"magFilter" : 9729, "minFilter" : 9729, "wrapS" : 10497, "wrapT" : 10497}, {"magFilter" : 9729, "minFilter" : 9729, "wrapS" : 10497, "wrapT" : 10497}, {"magFilter" : 9729, "minFilter" : 9729, "wrapS" : 10497, "wrapT" : 10497}, {"magFilter" : 9729, "minFilter" : 9729, "wrapS" : 10497, "wrapT" : 10497}], "scene" : 0, "scenes" : [{"nodes" : [0, 1]}], "textures" : [{"sampler" : 0, "source" : 0, "name" : "pink tshirt _F_normal.png"}, {"sampler" : 1, "source" : 1, "name" : "pink tshirt _F_diffuse.png"}, {"sampler" : 2, "source" : 2, "name" : "pink tshirt _F_normal.png"}, {"sampler" : 3, "source" : 3, "name" : "pink tshirt _F_diffuse.png"}, {"sampler" : 4, "source" : 4, "name" : "pink tshirt _F_normal.png"}, {"sampler" : 5, "source" : 5, "name" : "pink tshirt _F_diffuse.png"}, {"sampler" : 6, "source" : 6, "name" : "pink tshirt _F_normal.png"}, {"sampler" : 7, "source" : 7, "name" : "pink tshirt _F_diffuse.png"}, {"sampler" : 8, "source" : 8, "name" : "pink tshirt _F_normal.png"}, {"sampler" : 9, "source" : 9, "name" : "pink tshirt _F_diffuse.png"}, {"sampler" : 10, "source" : 10, "name" : "pink tshirt _F_normal.png"}, {"sampler" : 11, "source" : 11, "name" : "pink tshirt _F_diffuse.png"}, {"sampler" : 12, "source" : 12, "name" : "pink tshirt _F_normal.png"}, {"sampler" : 13, "source" : 13, "name" : "pink tshirt _F_diffuse.png"}, {"sampler" : 14, "source" : 14, "name" : "pink tshirt _F_normal.png"}, {"sampler" : 15, "source" : 15, "name" : "pink tshirt _F_diffuse.png"}, {"sampler" : 16, "source" : 16, "name" : "pink tshirt _F_normal.png"}, {"sampler" : 17, "source" : 17, "name" : "pink tshirt _F_diffuse.png"}, {"sampler" : 18, "source" : 18, "name" : "pink tshirt _F_normal.png"}, {"sampler" : 19, "source" : 19, "name" : "pink tshirt _F_diffuse.png"}, {"sampler" : 20, "source" : 20, "name" : "pink tshirt _F_normal.png"}, {"sampler" : 21, "source" : 21, "name" : "pink tshirt _F_diffuse.png"}]}